<?xml version="1.0" standalone="no"?>
<!DOCTYPE svg PUBLIC "-//W3C//DTD SVG 20010904//EN"
 "http://www.w3.org/TR/2001/REC-SVG-20010904/DTD/svg10.dtd">
<svg version="1.0" xmlns="http://www.w3.org/2000/svg"
 width="551.000000pt" height="551.000000pt" viewBox="0 0 551.000000 551.000000"
 preserveAspectRatio="xMidYMid meet">
<metadata>
Created by potrace 1.11, written by Peter Selinger 2001-2013
</metadata>
<g transform="translate(0.000000,551.000000) scale(0.100000,-0.100000)"
fill="#000000" stroke="none">
<path d="M3195 5373 c-244 -12 -497 -54 -680 -114 -148 -49 -363 -152 -490
-237 -295 -197 -534 -499 -658 -832 -162 -435 -137 -864 74 -1231 98 -172 191
-284 557 -674 118 -125 212 -228 210 -231 -10 -9 -243 19 -348 42 -181 41
-290 86 -677 281 l-361 182 -6 -112 c-4 -62 -11 -238 -16 -392 -6 -154 -17
-374 -25 -490 -14 -189 -71 -786 -95 -975 -5 -41 -7 -76 -6 -78 8 -8 700 -143
851 -166 513 -78 948 -78 1331 -1 342 69 693 238 937 452 94 82 282 285 306
329 27 53 93 167 112 194 27 39 87 221 109 332 29 139 44 415 30 532 -18 155
-38 239 -105 451 -54 172 -215 379 -553 713 l-257 254 90 -5 c201 -12 368 -60
666 -193 104 -46 193 -84 197 -84 5 0 55 -18 112 -41 76 -30 105 -37 110 -28
5 6 15 73 25 148 9 75 20 163 26 196 8 53 16 121 34 310 14 140 47 504 55 605
13 156 36 379 56 528 9 68 13 126 10 129 -8 8 -421 96 -601 128 -206 36 -445
64 -660 75 -182 9 -227 10 -360 3z m512 -424 c158 -13 367 -40 537 -70 l128
-22 -6 -51 c-23 -184 -47 -432 -61 -621 -9 -121 -17 -225 -18 -231 -1 -7 -39
3 -100 27 -124 48 -240 81 -387 111 -96 19 -147 23 -305 23 -171 0 -197 -2
-265 -23 -220 -69 -322 -176 -308 -322 12 -120 93 -219 434 -530 353 -322 456
-440 554 -635 68 -135 84 -203 83 -345 -1 -190 -67 -395 -186 -572 -245 -367
-624 -579 -1168 -655 -150 -20 -533 -23 -714 -4 -221 23 -739 102 -752 115 -1
1 8 110 22 242 13 131 29 313 35 404 7 91 15 195 18 231 l7 66 115 -50 c279
-120 512 -175 771 -184 190 -6 295 5 403 44 167 60 236 142 236 281 0 128 3
125 -555 692 -143 146 -286 299 -317 340 -154 205 -214 401 -188 620 15 136
42 226 104 355 209 433 645 703 1236 764 124 12 498 13 647 0z"/>
<path d="M1576 2341 c-3 -5 1 -11 9 -15 8 -3 15 -1 15 4 0 13 -18 22 -24 11z"/>
</g>
</svg>
